<svg id="Camada_1" data-name="Camada 1" xmlns="http://www.w3.org/2000/svg" viewBox="0 0 13.46 9.57"><defs><style>.cls-1{fill:#9575cd;}</style></defs><title>discord2</title><path class="cls-1" d="M14.54,15l.71.9a4.36,4.36,0,0,0,3.48-1.68,15.77,15.77,0,0,0-1.61-6.69,6.29,6.29,0,0,0-3.22-1.2l-.17.17A8.78,8.78,0,0,1,16.56,8,9.62,9.62,0,0,0,7.44,8,8.78,8.78,0,0,1,10.27,6.5l-.17-.17a6.29,6.29,0,0,0-3.22,1.2,15.77,15.77,0,0,0-1.61,6.69A4.36,4.36,0,0,0,8.75,15.9l.71-.9a3.8,3.8,0,0,1-2-1.38,8.83,8.83,0,0,0,9.16,0A3.8,3.8,0,0,1,14.54,15ZM9.93,13.13a1.23,1.23,0,0,1-1.16-1.27,1.17,1.17,0,1,1,2.33,0A1.23,1.23,0,0,1,9.93,13.13Zm4.17,0a1.23,1.23,0,0,1-1.16-1.27,1.17,1.17,0,1,1,2.33,0A1.23,1.23,0,0,1,14.1,13.13Z" transform="translate(-5.27 -6.33)"/></svg>